Coordinates
version=1
nRows=7
nColumns=63
inDegrees=yes

Units are S.I. units (second, meters, Newtons, ...)
If the header above contains a line with 'inDegrees', this indicates whether rotational values are in degrees (yes) or radians (no).

endheader
time	pelvis_tilt	pelvis_list	pelvis_rotation	pelvis_tx	pelvis_ty	pelvis_tz	hip_flexion_r	hip_adduction_r	hip_rotation_r	knee_angle_r	knee_angle_r_beta	ankle_angle_r	subtalar_angle_r	mtp_angle_r	hip_flexion_l	hip_adduction_l	hip_rotation_l	knee_angle_l	knee_angle_l_beta	ankle_angle_l	subtalar_angle_l	mtp_angle_l	L5_S1_Flex_Ext	L5_S1_Lat_Bending	L5_S1_axial_rotation	L4_L5_Flex_Ext	L4_L5_Lat_Bending	L4_L5_axial_rotation	L3_L4_Flex_Ext	L3_L4_Lat_Bending	L3_L4_axial_rotation	L2_L3_Flex_Ext	L2_L3_Lat_Bending	L2_L3_axial_rotation	L1_L2_Flex_Ext	L1_L2_Lat_Bending	L1_L2_axial_rotation	L1_T12_Flex_Ext	L1_T12_Lat_Bending	L1_T12_axial_rotation	Abs_r3	Abs_r2	Abs_r1	Abs_t1	Abs_t2	neck_flexion	neck_bending	neck_rotation	arm_flex_r	arm_add_r	arm_rot_r	elbow_flex_r	pro_sup_r	wrist_flex_r	wrist_dev_r	arm_flex_l	arm_add_l	arm_rot_l	elbow_flex_l	pro_sup_l	wrist_flex_l	wrist_dev_l
      1.96363636	     -0.84382569	     -2.96756536	     85.82281235	      0.47563657	      0.80588273	      0.99578402	      2.40628810	      1.67488333	      4.09774325	     12.48998174	      0.21799130	     29.50354633	      4.87005251	      0.00000000	     -1.85365863	     -1.25347930	    -23.23049063	     10.81437039	      0.18874637	     28.45889624	     12.63476704	      0.00000000	      0.01652077	     -0.13593189	      2.91061441	      0.03068073	     -0.18078942	      3.09252781	      0.02714198	     -0.33050480	      3.09252781	      0.01888159	     -0.33050480	      2.54678761	      0.01534119	     -0.27719231	      2.36487421	      0.00943997	     -0.21055850	      2.18296081	      0.11800623	     -1.53768875	     16.18796415	      0.00000000	      0.00000000	     23.64686133	      1.45571736	      5.16512452	     -6.25100821	     -8.35699170	     -4.65960246	    113.65916948	     78.05637947	     -0.70938959	     13.22973064	    -11.00647195	    -15.70917321	     -0.44413610	    113.83464995	     84.75118284	      1.00604506	    -11.29852082
      1.98181818	     -0.65849517	     -2.96454393	     86.51155827	      0.47514681	      0.80605021	      0.99671765	      2.45728094	      1.89246332	      3.56544943	     12.51733876	      0.21846877	     29.46439854	      4.61468226	      0.00000000	     -1.67546758	     -1.46888117	    -22.24300871	     10.89773133	      0.19020129	     28.43476880	     12.12708875	      0.00000000	      0.03094064	     -0.10337237	      2.73574152	      0.05745987	     -0.13748525	      2.90672537	      0.05083239	     -0.25133958	      2.90672537	      0.03536206	     -0.25133958	      2.39377383	      0.02873148	     -0.21079694	      2.22278999	      0.01767948	     -0.16012380	      2.05180614	      0.22100593	     -1.16936892	     15.21537364	      0.00000000	      0.00000000	     24.01203950	      0.97476869	      5.67814067	     -5.27723097	     -8.27312760	     -4.56169580	    109.44087363	     78.61593836	     -1.28285833	     13.36745902	    -10.02048606	    -14.80535022	     -0.56169076	    110.51653634	     86.21495723	     -2.78564427	     -6.44129508
      2.00000000	     -0.47403739	     -2.99046288	     87.43647607	      0.47429395	      0.80595409	      0.99780884	      2.54171824	      2.07190872	      2.62861531	     12.58446284	      0.21964031	     29.52335781	      4.60846414	      0.00000000	     -1.39844807	     -1.61071553	    -20.08869071	     10.97502432	      0.19155031	     28.32455593	     10.46180515	      0.00000000	      0.03949686	     -0.07817411	      2.56656857	      0.07334962	     -0.10397157	      2.72697910	      0.06488939	     -0.19007253	      2.72697910	      0.04514096	     -0.19007253	      2.24574750	      0.03667679	     -0.15941265	      2.08533696	      0.02256851	     -0.12109170	      1.92492643	      0.28212213	     -0.88432117	     14.27448440	      0.00000000	      0.00000000	     24.27548373	      0.47027753	      5.56039861	     -4.44073780	     -8.43200831	     -4.59511356	    105.19271197	     80.70924799	     -1.46395087	     14.33262086	     -8.27577141	    -14.03113909	     -0.01478083	    106.17142419	     88.00297621	     -4.43761476	     -2.15554564
      2.01818182	     -0.30000487	     -3.00079315	     87.97012076	      0.47385395	      0.80564308	      0.99894028	      2.65360356	      2.27070252	      2.07935292	     12.73240582	      0.22222240	     29.56962076	      4.35953544	      0.00000000	     -1.20496130	     -1.83845640	    -19.64080364	     11.08493048	      0.19346853	     28.42012513	     10.44324989	      0.00000000	      0.03559489	     -0.06267615	      2.51584215	      0.06610327	     -0.08335928	      2.67308229	      0.05847885	     -0.15239079	      2.67308229	      0.04068140	     -0.15239079	      2.20136188	      0.03305342	     -0.12780921	      2.04412175	      0.02033892	     -0.09708536	      1.88688161	      0.25425076	     -0.70900516	     13.99235930	      0.00000000	      0.00000000	     24.42242629	      0.05122149	      4.76922657	     -3.72161200	     -8.91711487	     -4.51004979	    100.94811117	     82.55259395	     -1.60001204	     16.20276546	     -6.00787876	    -13.39422984	      1.41949371	    101.14411183	     88.74620203	     -5.32995107	      2.48270369
      2.03636364	     -0.19677300	     -3.03406656	     88.54538785	      0.47330120	      0.80526457	      0.99975020	      2.76870402	      2.35816605	      1.38310695	     12.88530167	      0.22489094	     29.69628721	      4.36678112	      0.00000000	     -0.97530047	     -2.00946542	    -19.08714885	     11.25043615	      0.19635715	     28.44898960	     10.45163298	      0.00000000	      0.03115288	     -0.06265940	      2.48480388	      0.05785401	     -0.08333701	      2.64010412	      0.05118107	     -0.15235007	      2.64010412	      0.03560463	     -0.15235007	      2.17420339	      0.02892856	     -0.12777505	      2.01890315	      0.01780076	     -0.09705942	      1.86360291	      0.22252190	     -0.70881570	     13.81973373	      0.00000000	      0.00000000	     24.41365192	     -0.24777868	      3.46859713	     -3.02835690	     -9.31910493	     -4.43901556	     96.60445061	     85.45858602	     -1.18698833	     18.60661340	     -3.52268190	    -12.88789080	      3.35931965	     95.61627016	     89.06954490	     -5.57195995	      7.44627544
      2.05454545	     -0.01859852	     -2.91467429	     89.07821999	      0.47277604	      0.80504750	      1.00018983	      2.62637061	      2.53307463	      0.78352005	     12.82428969	      0.22382608	     29.70373729	      4.22749172	      0.00000000	     -0.96124478	     -2.26447772	    -18.90306377	     11.35059791	      0.19810531	     28.52031696	     10.79139683	      0.00000000	      0.00076007	     -0.05421610	      2.42155176	      0.00141152	     -0.07210741	      2.57289875	      0.00124872	     -0.13182103	      2.57289875	      0.00086868	     -0.13182103	      2.11885779	      0.00070580	     -0.11055747	      1.96751081	      0.00043430	     -0.08398074	      1.81616382	      0.00542909	     -0.61330337	     13.46794443	      0.00000000	      0.00000000	     24.51066165	     -0.29347531	      2.50354511	     -1.99249522	     -9.86356862	     -3.56154224	     92.01972120	     86.93538631	     -1.39970022	     20.52340581	     -1.23642595	    -12.34687133	      5.28086572	     90.07893109	     89.23449120	     -5.98984117	     12.85796928
      2.07272727	      0.16616522	     -2.81563475	     89.74648128	      0.47224044	      0.80484525	      1.00018880	      2.43492373	      2.72124731	      0.03074833	     12.61527926	      0.22017816	     29.65681726	      4.05651029	      0.00000000	     -0.92862843	     -2.55502712	    -18.76563666	     11.44061937	      0.19967648	     28.57463385	     11.37039608	      0.00000000	     -0.01473970	     -0.04774699	      2.33849403	     -0.02737309	     -0.06350350	      2.48464990	     -0.02421585	     -0.11609204	      2.48464990	     -0.01684600	     -0.11609204	      2.04618227	     -0.01368728	     -0.09736567	      1.90002640	     -0.00842226	     -0.07396009	      1.75387052	     -0.10528418	     -0.54012354	     13.00600223	      0.00000000	      0.00000000	     24.61174466	     -0.35988667	      1.59243689	     -0.84907345	    -10.17158436	     -2.51506593	     87.42337104	     87.68189036	     -2.10796499	     21.81165258	      0.72738693	    -11.87276641	      7.23925262	     84.56175336	     89.33053406	     -5.94109626	     17.26498077
